<svg width="12" height="14" viewBox="0 0 12 14" fill="none" xmlns="http://www.w3.org/2000/svg">
<path d="M6 10.6667C6.18889 10.6667 6.34722 10.6028 6.475 10.475C6.60278 10.3472 6.66667 10.1889 6.66667 10C6.66667 9.81111 6.60278 9.65278 6.475 9.525C6.34722 9.39722 6.18889 9.33333 6 9.33333C5.81111 9.33333 5.65278 9.39722 5.525 9.525C5.39722 9.65278 5.33333 9.81111 5.33333 10C5.33333 10.1889 5.39722 10.3472 5.525 10.475C5.65278 10.6028 5.81111 10.6667 6 10.6667ZM5.33333 8H6.66667V4H5.33333V8ZM1.33333 13.3333C0.966667 13.3333 0.652778 13.2028 0.391667 12.9417C0.130556 12.6806 0 12.3667 0 12V2.66667C0 2.3 0.130556 1.98611 0.391667 1.725C0.652778 1.46389 0.966667 1.33333 1.33333 1.33333H4.13333C4.27778 0.933333 4.51944 0.611111 4.85833 0.366667C5.19722 0.122222 5.57778 0 6 0C6.42222 0 6.80278 0.122222 7.14167 0.366667C7.48056 0.611111 7.72222 0.933333 7.86667 1.33333H10.6667C11.0333 1.33333 11.3472 1.46389 11.6083 1.725C11.8694 1.98611 12 2.3 12 2.66667V12C12 12.3667 11.8694 12.6806 11.6083 12.9417C11.3472 13.2028 11.0333 13.3333 10.6667 13.3333H1.33333ZM6 2.16667C6.14444 2.16667 6.26389 2.11944 6.35833 2.025C6.45278 1.93056 6.5 1.81111 6.5 1.66667C6.5 1.52222 6.45278 1.40278 6.35833 1.30833C6.26389 1.21389 6.14444 1.16667 6 1.16667C5.85556 1.16667 5.73611 1.21389 5.64167 1.30833C5.54722 1.40278 5.5 1.52222 5.5 1.66667C5.5 1.81111 5.54722 1.93056 5.64167 2.025C5.73611 2.11944 5.85556 2.16667 6 2.16667Z" fill="#710E09"/>
</svg>
